<svg xmlns="http://www.w3.org/2000/svg" viewBox="0 0 69.89 43.82">
    <title>logo-icon</title>
    <g id="Ebene_2" data-name="Ebene 2">
        <g id="Ebene_1-2" data-name="Ebene 1">
            <path d="M51.44,4.89l-5.1-.16c-.32,0-.45,0-.45.41,0,1,0,1,1,1,1.78,0,3.57-.09,5.36.07a4.21,4.21,0,0,1,2.39.93A87.71,87.71,0,0,1,66.5,18.84a12.33,12.33,0,0,1,2.59,6.42,36.13,36.13,0,0,1,.32,5.6A8.24,8.24,0,0,1,69,33.47c-.09.22,0,.27.17.37a1.18,1.18,0,0,1,.69,1.5c-.06.36-.11.72-.17,1.08a1.39,1.39,0,0,1-1.56,1.32H65.36c-.71,0-1.43,0-2.14,0-.29,0-.37-.09-.39-.39a6.86,6.86,0,0,0-13.61-.79c-.06.33.07.81-.19,1s-.7.06-1.07.06q-13.83,0-27.67,0c-.46,0-.55-.14-.6-.56a6.57,6.57,0,0,0-4.4-5.69,6.53,6.53,0,0,0-7.1,1.41A6.62,6.62,0,0,0,6,37.4c0,.28-.12.35-.38.34-1.4,0-2.81,0-4.22,0A1.33,1.33,0,0,1,0,36.22V35A1,1,0,0,1,.67,33.9c.59-.18.48-.55.43-.95C.82,30.78.64,28.6.52,26.42A73.94,73.94,0,0,1,.83,14.15a31.67,31.67,0,0,1,1-5.46A3.16,3.16,0,0,1,5.27,6.12h4c.33,0,.41-.07.41-.4,0-1,0-1-1-1l-7.54.28c-.17,0-.42.14-.5-.13A.51.51,0,0,1,1,4.36,7.88,7.88,0,0,1,3.69,3.5c1-.18,1.95-.33,2.93-.46.34,0,.43-.16.31-.49A3,3,0,0,0,5.33.67C5.18.61,5,.59,5,.35s.27-.2.43-.25A3.18,3.18,0,0,1,9.24,2.25c.11.35.23.46.6.42,3.92-.42,7.85-.66,11.78-.82s7.71-.14,11.56-.05c2.43.06,4.86.06,7.29.16a91.31,91.31,0,0,1,13.1,1.13,10.92,10.92,0,0,1,2.3.64,3,3,0,0,1,.72.41c.26.18.5.45.39.78s-.44.14-.66.13c-1.63,0-3.26-.1-4.88-.15Zm-17,17.56H1.77c-.14,0-.28,0-.41,0s-.33.1-.31.35c.12,1.33.07,2.67.16,4,.13,2.13.34,4.25.56,6.37,0,.4.17.57.61.55,1.19,0,2.39,0,3.59,0a.91.91,0,0,0,.86-.42,7.27,7.27,0,0,1,6.45-3,7.51,7.51,0,0,1,6.83,5.38c.13.43,0,1.05.4,1.25a3.32,3.32,0,0,0,1.38.05H48c.42,0,.57-.08.65-.54a6.88,6.88,0,0,1,2.12-4,7.49,7.49,0,0,1,11.37,1,.77.77,0,0,0,.69.35c1.49,0,3,0,4.48,0,1,0,1.11-.08,1.3-1.1a.34.34,0,0,0,0-.1,18.8,18.8,0,0,0,.08-5.19A26.76,26.76,0,0,0,68,23.06c-.11-.46-.3-.62-.81-.62Q50.82,22.47,34.45,22.45Zm-.19-.65H66.93c.59,0,.59,0,.32-.54A11.3,11.3,0,0,0,65.75,19,98.76,98.76,0,0,0,55,8.2,5.76,5.76,0,0,0,50.9,6.76H5.09A2.49,2.49,0,0,0,2.58,8.56,18.23,18.23,0,0,0,2,11a57.49,57.49,0,0,0-.9,10.14c0,.68,0,.68.67.68ZM56.39,4.67a3.14,3.14,0,0,0-1.88-1,55.32,55.32,0,0,0-9.32-1.14c-2.34-.15-4.67-.23-7-.31-1.94-.06-3.89-.06-5.83-.09-3,0-6.07-.1-9.11.05-1.39.07-2.78.07-4.16.15-.67,0-1.35,0-2,.1-2.76.22-5.53.38-8.28.7A45.2,45.2,0,0,0,2.33,4.24a1.45,1.45,0,0,0-.87.42c2.37-.1,4.65-.22,6.94-.3l5.87-.21C17.08,4,19.89,4,22.69,3.94c3.63,0,7.26-.06,10.89.05,2.77.09,5.54.11,8.32.22s5.37.16,8.06.23l1.35,0ZM27.78,6.12H43.67c.91,0,.89,0,.92-.93,0-.44-.13-.54-.54-.55-5.34-.14-10.68-.31-16-.33s-10.79.16-16.18.33c-.82,0-.78,0-.83.88,0,.52.13.61.62.61C17,6.11,22.39,6.12,27.78,6.12ZM62.7,34.35a7.62,7.62,0,0,1,.75,2.44c0,.22.09.3.31.3h4.48a.69.69,0,0,0,.77-.67c0-.4.13-.79.19-1.19.09-.6-.12-.86-.75-.87Zm-56.54,0H1.44c-.56,0-.78.25-.79.8v1.14c0,.52.23.78.76.78,1.23,0,2.46,0,3.7,0,.17,0,.28,0,.3-.24A8,8,0,0,1,6.16,34.35Z" style="fill:#070606" />
            <path d="M62,37.77a6,6,0,0,1-6,6,6.05,6.05,0,1,1,0-12.1A6,6,0,0,1,62,37.77Zm-6,5.35a5.34,5.34,0,0,0,5.37-5.34,5.38,5.38,0,1,0-10.75,0A5.28,5.28,0,0,0,56,43.12Z" style="fill:#070606" />
            <path d="M6.85,37.73a6,6,0,0,1,6-6,6.05,6.05,0,1,1-6,6Zm6,5.39a5.29,5.29,0,0,0,5.38-5.35,5.38,5.38,0,1,0-10.75,0A5.33,5.33,0,0,0,12.86,43.12Z" style="fill:#070606" />
            <path d="M34.45,22.45q16.36,0,32.73,0c.51,0,.7.16.81.62a26.76,26.76,0,0,1,.66,4.26,18.8,18.8,0,0,1-.08,5.19.34.34,0,0,1,0,.1c-.19,1-.28,1.1-1.3,1.1-1.5,0-3,0-4.48,0a.77.77,0,0,1-.69-.35,7.49,7.49,0,0,0-11.37-1,6.88,6.88,0,0,0-2.12,4c-.08.46-.23.54-.65.54H21.89a3.32,3.32,0,0,1-1.38-.05c-.41-.2-.27-.82-.4-1.25a7.51,7.51,0,0,0-6.83-5.38,7.27,7.27,0,0,0-6.45,3,.91.91,0,0,1-.86.42c-1.2,0-2.4,0-3.59,0-.44,0-.57-.15-.61-.55-.22-2.12-.43-4.24-.56-6.37-.09-1.33,0-2.67-.16-4,0-.25.05-.37.31-.35s.27,0,.41,0Z" style="fill:#ee7066" />
            <path d="M34.26,21.8H1.74c-.68,0-.68,0-.67-.68A57.49,57.49,0,0,1,2,11a18.23,18.23,0,0,1,.61-2.42A2.49,2.49,0,0,1,5.09,6.77H50.9A5.76,5.76,0,0,1,55,8.2,98.76,98.76,0,0,1,65.75,19a11.3,11.3,0,0,1,1.5,2.31c.27.54.27.54-.32.54H34.26ZM18.48,8.63H6.39A1.49,1.49,0,0,0,4.7,10.32v7.92c0,1.29.52,1.8,1.8,1.8h24c1.28,0,1.8-.52,1.8-1.8V10.43c0-1.28-.52-1.8-1.8-1.8ZM51.32,20h9.06A1.53,1.53,0,0,0,62,19.13a1.58,1.58,0,0,0-.52-1.82c-2.6-2.52-5.21-5-7.8-7.57A3.75,3.75,0,0,0,51,8.63H42.26a1.52,1.52,0,0,0-1.73,1.72v7.92c0,1.23.55,1.77,1.78,1.77Z" style="fill:#f9f9f9" />
            <path d="M56.39,4.67l-5.08-.19L50,4.44c-2.69-.07-5.38-.12-8.06-.23S36.35,4.08,33.58,4c-3.63-.11-7.26-.08-10.89-.05-2.8,0-5.61.1-8.42.21L8.4,4.36c-2.29.08-4.57.2-6.94.3a1.45,1.45,0,0,1,.87-.42A45.2,45.2,0,0,1,8.78,3.17c2.75-.32,5.52-.48,8.28-.7.67-.05,1.35-.06,2-.1,1.38-.08,2.77-.08,4.16-.15,3-.15,6.07-.1,9.11-.05,1.94,0,3.89,0,5.83.09,2.34.08,4.67.16,7,.31a55.32,55.32,0,0,1,9.32,1.14A3.14,3.14,0,0,1,56.39,4.67Z" style="fill:#4e4f4e" />
            <path d="M62.7,34.35h5.75c.63,0,.84.27.75.87-.06.4-.15.79-.19,1.19a.69.69,0,0,1-.77.67H63.76c-.22,0-.28-.08-.31-.3A7.62,7.62,0,0,0,62.7,34.35Z" style="fill:#fdfdfd" />
            <path d="M6.16,34.35a8,8,0,0,0-.75,2.49c0,.22-.13.25-.3.24-1.24,0-2.47,0-3.7,0-.53,0-.75-.26-.76-.78V35.15c0-.55.23-.79.79-.8Z" style="fill:#f9f9f9" />
            <path d="M56,43.12a5.28,5.28,0,0,1-5.38-5.35A5.38,5.38,0,1,1,56,43.12Zm2.88-5.37A2.81,2.81,0,0,0,56,34.86a2.92,2.92,0,0,0-3,2.87,3,3,0,0,0,2.92,3A2.87,2.87,0,0,0,58.89,37.75Z" style="fill:#4e4f4e" />
            <path d="M12.86,43.12a5.33,5.33,0,0,1-5.37-5.38,5.38,5.38,0,1,1,10.75,0A5.29,5.29,0,0,1,12.86,43.12Zm0-2.42a2.93,2.93,0,1,0,.07-5.85,2.9,2.9,0,0,0-3,2.91A3,3,0,0,0,12.84,40.7Z" style="fill:#4e4f4e" />
            <path d="M18.48,8.63h12c1.28,0,1.8.52,1.8,1.8v7.81c0,1.28-.52,1.8-1.8,1.8H6.5c-1.28,0-1.8-.51-1.8-1.8V10.32A1.49,1.49,0,0,1,6.39,8.63ZM8.61,19.34H28a26.21,26.21,0,0,1-2.7-3.65A20.21,20.21,0,0,1,22.52,9.8c-.1-.4-.22-.53-.64-.53-2.17,0-4.34,0-6.51,0-.54,0-.79.12-.83.66a2.78,2.78,0,0,1-.22.69,25.21,25.21,0,0,1-3.43,6A31.82,31.82,0,0,1,8.61,19.34Zm23-5v-3.8c0-1-.23-1.27-1.24-1.27H24c-1,0-1,0-.68,1a26.11,26.11,0,0,0,4.55,7.93c1,1.27,1,1.25,2.63,1.24.87,0,1.14-.28,1.14-1.16ZM5.34,14.28v4.11a1,1,0,0,0,.33.83,2.48,2.48,0,0,0,2.25-.14,28.45,28.45,0,0,0,3.81-4.86,18.42,18.42,0,0,0,2.19-4.45c.11-.37.08-.52-.37-.51-2.38,0-4.75,0-7.13,0-.82,0-1.08.27-1.08,1.11Z" style="fill:#070606" />
            <path d="M51.32,20h-9c-1.23,0-1.78-.54-1.78-1.77V10.35a1.52,1.52,0,0,1,1.73-1.72H51a3.75,3.75,0,0,1,2.72,1.11c2.59,2.53,5.2,5,7.8,7.57A1.58,1.58,0,0,1,62,19.13a1.53,1.53,0,0,1-1.61.91Zm0-.65h9c.46,0,.87-.05,1-.57S61.28,18,61,17.74c-2.57-2.49-5.14-5-7.7-7.47a3.25,3.25,0,0,0-2.42-1H42.36c-.92,0-1.18.26-1.18,1.18v7.76c0,.91.26,1.17,1.18,1.17Z" style="fill:#070606" />
            <path d="M58.89,37.75a2.87,2.87,0,0,1-2.92,3,3,3,0,0,1-2.92-3,2.92,2.92,0,0,1,3-2.87A2.81,2.81,0,0,1,58.89,37.75Zm-.64,0A2.25,2.25,0,0,0,56,35.5,2.27,2.27,0,0,0,56,40,2.26,2.26,0,0,0,58.25,37.79Z" style="fill:#070606" />
            <path d="M12.84,40.7a3,3,0,0,1-2.91-2.94,2.9,2.9,0,0,1,3-2.91,2.93,2.93,0,1,1-.07,5.85Zm0-.72a2.22,2.22,0,0,0,2.31-2,2.26,2.26,0,0,0-2.23-2.51,2.2,2.2,0,0,0-2.32,2.3A2.07,2.07,0,0,0,12.8,40Z" style="fill:#070606" />
            <path d="M31.63,14.34v3.9c0,.88-.27,1.16-1.14,1.16-1.61,0-1.63,0-2.63-1.24a26.11,26.11,0,0,1-4.55-7.93c-.32-1-.31-1,.68-1h6.4c1,0,1.24.24,1.24,1.27Z" style="fill:#f9f9f9" />
            <path d="M5.34,14.28v-3.9c0-.84.26-1.11,1.08-1.11,2.38,0,4.75,0,7.13,0,.45,0,.48.14.37.51a18.42,18.42,0,0,1-2.19,4.45,28.45,28.45,0,0,1-3.81,4.86,2.48,2.48,0,0,1-2.25.14,1,1,0,0,1-.33-.83Z" style="fill:#f9f9f9" />
            <path d="M58.25,37.79A2.26,2.26,0,0,1,56,40a2.27,2.27,0,0,1,0-4.54A2.25,2.25,0,0,1,58.25,37.79Z" style="fill:#f9f9f9" />
            <path d="M12.8,40a2.07,2.07,0,0,1-2.24-2.18,2.2,2.2,0,0,1,2.32-2.3A2.26,2.26,0,0,1,15.11,38,2.22,2.22,0,0,1,12.8,40Z" style="fill:#fdfdfd" />
        </g>
    </g>
</svg>
